<svg xmlns="http://www.w3.org/2000/svg" xmlns:xlink="http://www.w3.org/1999/xlink" viewBox="0 0 1771 775"><g id="graph0" class="graph" transform="scale(4.16667 4.16667) rotate(0) translate(4 182)"><polygon fill="#fff" stroke="none" points="-4 4 -4 -182 420.98 -182 420.98 4 -4 4"/><g id="clust1" class="cluster"><title>cluster_ColleagueB</title><polygon fill="none" stroke="#000" points="8 -93 8 -170 408.98 -170 408.98 -93 8 -93"/><text x="208.49" y="-152.7" font-family="Times,serif" font-size="14" text-anchor="middle">Task A</text></g><g id="clust2" class="cluster"><title>cluster_ColleagueA</title><polygon fill="none" stroke="#000" points="8.72 -8 8.72 -85 408.25 -85 408.25 -8 8.72 -8"/><text x="208.49" y="-67.7" font-family="Times,serif" font-size="14" text-anchor="middle">Task B</text></g><g id="node1" class="node"><title>A1</title><polygon fill="none" stroke="#000" points="47.36 -137 16 -119 47.36 -101 78.73 -119 47.36 -137"/><text x="47.36" y="-113.95" font-family="Times,serif" font-size="14" text-anchor="middle">A1</text></g><g id="node2" class="node"><title>A2</title><polygon fill="none" stroke="#000" points="146.09 -137 114.73 -119 146.09 -101 177.46 -119 146.09 -137"/><text x="146.09" y="-113.95" font-family="Times,serif" font-size="14" text-anchor="middle">A2</text></g><g id="edge1" class="edge"><title>A1-&gt;A2</title><path fill="none" stroke="#000" d="M79.5,-119C86.84,-119 94.78,-119 102.52,-119"/><polygon fill="#000" stroke="#000" points="102.5 -122.5 112.5 -119 102.5 -115.5 102.5 -122.5"/></g><g id="edge2" class="edge"><title>A2-&gt;A0_1:c</title><path fill="none" stroke="#000" d="M178.25,-119C204.37,-119 239.35,-119 252.02,-119"/><polygon fill="#000" stroke="#000" points="255.85 -114 255.85 -124 253.85 -124 253.85 -114 255.85 -114"/><polyline fill="none" stroke="#000" points="256.85 -119 251.85 -119"/></g><g id="node4" class="node"><title>A3</title><polygon fill="none" stroke="#000" points="369.61 -137 338.25 -119 369.61 -101 400.98 -119 369.61 -137"/><text x="369.61" y="-113.95" font-family="Times,serif" font-size="14" text-anchor="middle">A3</text></g><g id="edge3" class="edge"><title>A0_1-&gt;A3</title><path fill="none" stroke="#000" d="M263.69,-119C274.58,-119 301.94,-119 326,-119"/><polygon fill="#000" stroke="#000" points="259.85 -124 259.85 -114 261.85 -114 261.85 -124 259.85 -124"/><polyline fill="none" stroke="#000" points="258.85 -119 263.85 -119"/><polygon fill="#000" stroke="#000" points="325.94 -122.5 335.94 -119 325.94 -115.5 325.94 -122.5"/></g><g id="node5" class="node"><title>B1</title><polygon fill="none" stroke="#000" points="47.36 -52 16.72 -34 47.36 -16 78.01 -34 47.36 -52"/><text x="47.36" y="-28.95" font-family="Times,serif" font-size="14" text-anchor="middle">B1</text></g><g id="node6" class="node"><title>B2</title><polygon fill="none" stroke="#000" points="146.09 -52 115.45 -34 146.09 -16 176.74 -34 146.09 -52"/><text x="146.09" y="-28.95" font-family="Times,serif" font-size="14" text-anchor="middle">B2</text></g><g id="edge4" class="edge"><title>B1-&gt;B2</title><path fill="none" stroke="#000" d="M78.97,-34C86.72,-34 95.18,-34 103.37,-34"/><polygon fill="#000" stroke="#000" points="103.17 -37.5 113.17 -34 103.17 -30.5 103.17 -37.5"/></g><g id="node7" class="node"><title>B3</title><polygon fill="none" stroke="#000" points="257.85 -52 227.21 -34 257.85 -16 288.49 -34 257.85 -52"/><text x="257.85" y="-28.95" font-family="Times,serif" font-size="14" text-anchor="middle">B3</text></g><g id="edge5" class="edge"><title>B2-&gt;B3</title><path fill="none" stroke="#000" d="M177.67,-34C189.21,-34 202.54,-34 214.93,-34"/><polygon fill="#000" stroke="#000" points="214.93 -37.5 224.93 -34 214.93 -30.5 214.93 -37.5"/></g><g id="edge7" class="edge"><title>B3-&gt;A3</title><path fill="none" stroke="#000" d="M271.87,-44.08C290.26,-58.32 324.07,-84.51 346.45,-101.84"/><polygon fill="#000" stroke="#000" points="344.02 -104.38 354.07 -107.74 348.3 -98.85 344.02 -104.38"/></g><g id="node8" class="node"><title>B4</title><polygon fill="none" stroke="#000" points="369.61 -52 338.97 -34 369.61 -16 400.25 -34 369.61 -52"/><text x="369.61" y="-28.95" font-family="Times,serif" font-size="14" text-anchor="middle">B4</text></g><g id="edge6" class="edge"><title>B3-&gt;B4</title><path fill="none" stroke="#000" d="M289.43,-34C300.96,-34 314.3,-34 326.69,-34"/><polygon fill="#000" stroke="#000" points="326.69 -37.5 336.69 -34 326.69 -30.5 326.69 -37.5"/></g></g></svg>