<svg xmlns="http://www.w3.org/2000/svg" xmlns:xlink="http://www.w3.org/1999/xlink" height="200pt" viewBox="0 0 1557 777"><g id="graph0" class="graph" transform="scale(4.16667 4.16667) rotate(0) translate(4 182.5)"><polygon fill="#fff" stroke="none" points="-4 4 -4 -182.5 369.6 -182.5 369.6 4 -4 4"/><g id="clust1" class="cluster"><title>cluster_both</title></g><g id="clust2" class="cluster"><title>cluster_deref</title><polygon fill="none" stroke="#000" stroke-dasharray="5 2" points="154 -16 154 -109 349.6 -109 349.6 -16 154 -16"/><text x="251.8" y="-91.7" font-family="Times,serif" font-size="14" text-anchor="middle">String</text></g><g id="node1" class="node"><title>pinned_box</title><polyline fill="none" stroke="#000" points="59 -152 83 -152"/><text x="62" y="-158.2" font-family="Times,serif" font-size="14" text-anchor="start">Pin</text><polygon fill="none" stroke="#000" points="59 -129.5 59 -152 83 -152 83 -129.5 59 -129.5"/></g><g id="node3" class="node"><title>pin</title><ellipse cx="163.8" cy="-57" fill="#000" stroke="#000" rx="1.8" ry="1.8"/></g><g id="edge1" class="edge"><title>pinned_box:c-&gt;pin</title><path fill="none" stroke="#000" d="M72,-140.75C72,-140.75 151.8,-67.14 161.78,-57.94"/></g><g id="node2" class="node"><title>string1</title><polygon fill="#d3d3d3" stroke="none" points="24 -39 24 -83 118 -83 118 -39 24 -39"/><polyline fill="none" stroke="#000" points="24 -61 118 -61"/><text x="65" y="-66.7" font-family="Times,serif" font-size="14" text-anchor="start">s1</text><polygon fill="none" stroke="#000" points="24 -39 24 -61 64 -61 64 -39 24 -39"/><text x="26.75" y="-44.7" font-family="Times,serif" font-size="14" text-anchor="start">5usize</text><polygon fill="none" stroke="#000" points="64 -39 64 -61 76 -61 76 -39 64 -39"/><text x="66.62" y="-44.7" font-family="Times,serif" font-size="14" text-anchor="start">h</text><polygon fill="none" stroke="#000" points="76 -39 76 -61 88 -61 88 -39 76 -39"/><text x="79" y="-44.7" font-family="Times,serif" font-size="14" text-anchor="start">e</text><polygon fill="none" stroke="#000" points="88 -39 88 -61 97 -61 97 -39 88 -39"/><text x="90.62" y="-44.7" font-family="Times,serif" font-size="14" text-anchor="start">l</text><polygon fill="none" stroke="#000" points="97 -39 97 -61 106 -61 106 -39 97 -39"/><text x="99.62" y="-44.7" font-family="Times,serif" font-size="14" text-anchor="start">l</text><polygon fill="none" stroke="#000" points="106 -39 106 -61 118 -61 118 -39 106 -39"/><text x="108.62" y="-44.7" font-family="Times,serif" font-size="14" text-anchor="start">o</text></g><g id="node4" class="node"><title>string2</title><polyline fill="none" stroke="#000" points="209.6 -50 333.6 -50"/><text x="265.6" y="-55.7" font-family="Times,serif" font-size="14" text-anchor="start">s2</text><polygon fill="none" stroke="#000" points="209.6 -28 209.6 -50 249.6 -50 249.6 -28 209.6 -28"/><text x="212.35" y="-33.7" font-family="Times,serif" font-size="14" text-anchor="start">7usize</text><polygon fill="none" stroke="#000" points="249.6 -28 249.6 -50 261.6 -50 261.6 -28 249.6 -28"/><text x="252.23" y="-33.7" font-family="Times,serif" font-size="14" text-anchor="start">g</text><polygon fill="none" stroke="#000" points="261.6 -28 261.6 -50 273.6 -50 273.6 -28 261.6 -28"/><text x="264.23" y="-33.7" font-family="Times,serif" font-size="14" text-anchor="start">o</text><polygon fill="none" stroke="#000" points="273.6 -28 273.6 -50 285.6 -50 285.6 -28 273.6 -28"/><text x="276.23" y="-33.7" font-family="Times,serif" font-size="14" text-anchor="start">o</text><polygon fill="none" stroke="#000" points="285.6 -28 285.6 -50 297.6 -50 297.6 -28 285.6 -28"/><text x="288.23" y="-33.7" font-family="Times,serif" font-size="14" text-anchor="start">d</text><polygon fill="none" stroke="#000" points="297.6 -28 297.6 -50 309.6 -50 309.6 -28 297.6 -28"/><text x="300.23" y="-33.7" font-family="Times,serif" font-size="14" text-anchor="start">b</text><polygon fill="none" stroke="#000" points="309.6 -28 309.6 -50 321.6 -50 321.6 -28 309.6 -28"/><text x="312.23" y="-33.7" font-family="Times,serif" font-size="14" text-anchor="start">y</text><polygon fill="none" stroke="#000" points="321.6 -28 321.6 -50 333.6 -50 333.6 -28 321.6 -28"/><text x="324.6" y="-33.7" font-family="Times,serif" font-size="14" text-anchor="start">e</text></g><g id="edge2" class="edge"><title>pin-&gt;string2:target</title><path fill="none" stroke="#000" d="M164.8,-57C164.8,-57 185.03,-48.68 198,-43.36"/><polygon fill="#000" stroke="#000" points="199.28 -46.61 207.2 -39.58 196.62 -40.14 199.28 -46.61"/></g></g></svg>