<svg xmlns="http://www.w3.org/2000/svg" xmlns:xlink="http://www.w3.org/1999/xlink" height="200pt" viewBox="0 0 906 771"><g id="graph0" class="graph" transform="scale(4.16667 4.16667) rotate(0) translate(4 181)"><polygon fill="#fff" stroke="none" points="-4 4 -4 -181 213.5 -181 213.5 4 -4 4"/><g id="clust1" class="cluster"><title>cluster_box</title></g><g id="clust2" class="cluster"><title>cluster_box_internal</title><polygon fill="none" stroke="#000" points="82 -88 82 -132 111.5 -132 111.5 -88 82 -88"/><text x="96.75" y="-114.7" font-family="Times,serif" font-size="14" text-anchor="middle">b1</text></g><g id="clust3" class="cluster"><title>cluster_deref</title><polygon fill="none" stroke="#000" stroke-width="2" points="131.5 -8 131.5 -169 201.5 -169 201.5 -8 131.5 -8"/><text x="166.5" y="-151.7" font-family="Times,serif" font-size="14" text-anchor="middle">pinned</text></g><g id="node1" class="node"><title>pinned_box</title><polyline fill="none" stroke="#000" points="15 -109 39 -109"/><text x="18" y="-115.2" font-family="Times,serif" font-size="14" text-anchor="start">Pin</text><polygon fill="none" stroke="#000" points="15 -86.5 15 -109 39 -109 39 -86.5 15 -86.5"/></g><g id="node2" class="node"><title>pin</title><ellipse cx="96.25" cy="-98" fill="#000" stroke="#000" rx="1.8" ry="1.8"/></g><g id="edge1" class="edge"><title>pinned_box:c-&gt;pin</title><path fill="none" stroke="#000" d="M28,-97.75C28,-97.75 85.15,-97.96 94.08,-98"/></g><g id="node3" class="node"><title>box</title><polyline fill="none" stroke="#000" points="156 -109.75 177 -109.75"/><text x="159" y="-115.95" font-family="Times,serif" font-size="14" text-anchor="start">fut</text><polygon fill="none" stroke="#000" points="156 -87.25 156 -109.75 177 -109.75 177 -87.25 156 -87.25"/><text x="163.12" y="-93.45" font-family="Times,serif" font-size="14" text-anchor="start">0</text><polygon fill="none" stroke="#000" points="156 -64.75 156 -87.25 177 -87.25 177 -64.75 156 -64.75"/><polygon fill="none" stroke="#000" stroke-dasharray="5 2" points="156 -42.25 156 -64.75 177 -64.75 177 -42.25 156 -42.25"/><text x="160.88" y="-48.45" font-family="Times,serif" font-size="14" text-anchor="start">...</text><polygon fill="none" stroke="#000" points="156 -19.75 156 -42.25 177 -42.25 177 -19.75 156 -19.75"/><text x="163.12" y="-25.95" font-family="Times,serif" font-size="14" text-anchor="start">1</text></g><g id="edge2" class="edge"><title>pin-&gt;box:target</title><path fill="none" stroke="#000" d="M97.25,-98C97.25,-98 120.73,-98.37 143.58,-98.47"/><polygon fill="#000" stroke="#000" points="143.48 -101.97 153.49 -98.5 143.5 -94.97 143.48 -101.97"/></g><g id="edge3" class="edge"><title>box:c-&gt;box:internal</title><path fill="none" stroke="#000" d="M166.5,-76C145.79,-85 104.38,-85 104.38,-53.5 104.38,-31.08 125.36,-24.62 144.93,-26"/><polygon fill="#000" stroke="#000" points="144.21 -29.43 154.62 -27.44 145.24 -22.51 144.21 -29.43"/></g></g></svg>