<svg xmlns="http://www.w3.org/2000/svg" xmlns:xlink="http://www.w3.org/1999/xlink" viewBox="0 0 2884 775"><g id="graph0" class="graph" transform="scale(4.16667 4.16667) rotate(0) translate(4 182)"><polygon fill="#fff" stroke="none" points="-4 4 -4 -182 688.21 -182 688.21 4 -4 4"/><g id="clust1" class="cluster"><title>cluster_task_a</title><polygon fill="none" stroke="#000" points="8 -93 8 -170 676.21 -170 676.21 -93 8 -93"/><text x="342.11" y="-152.7" font-family="Times,serif" font-size="14" text-anchor="middle">Task A</text></g><g id="clust2" class="cluster"><title>cluster_task_b</title><polygon fill="none" stroke="#000" points="8.72 -8 8.72 -85 675.49 -85 675.49 -8 8.72 -8"/><text x="342.11" y="-67.7" font-family="Times,serif" font-size="14" text-anchor="middle">Task B</text></g><g id="node1" class="node"><title>A1</title><polygon fill="none" stroke="#000" points="47.36 -137 16 -119 47.36 -101 78.73 -119 47.36 -137"/><text x="47.36" y="-113.95" font-family="Times,serif" font-size="14" text-anchor="middle">A1</text></g><g id="node2" class="node"><title>A2</title><polygon fill="none" stroke="#000" points="243.38 -137 212.01 -119 243.38 -101 274.74 -119 243.38 -137"/><text x="243.38" y="-113.95" font-family="Times,serif" font-size="14" text-anchor="middle">A2</text></g><g id="node7" class="node"><title>B1</title><polygon fill="none" stroke="#000" points="145.37 -52 114.73 -34 145.37 -16 176.01 -34 145.37 -52"/><text x="145.37" y="-28.95" font-family="Times,serif" font-size="14" text-anchor="middle">B1</text></g><g id="edge9" class="edge"><title>A1-&gt;B1</title><path fill="none" stroke="#000" d="M60.52,-108.23C76.47,-94.12 104.66,-69.16 123.92,-52.11"/><polygon fill="#000" stroke="#000" points="126.01 -54.93 131.18 -45.68 121.37 -49.69 126.01 -54.93"/></g><g id="node3" class="node"><title>A3</title><polygon fill="none" stroke="#000" points="439.39 -137 408.02 -119 439.39 -101 470.75 -119 439.39 -137"/><text x="439.39" y="-113.95" font-family="Times,serif" font-size="14" text-anchor="middle">A3</text></g><g id="node8" class="node"><title>B2</title><polygon fill="none" stroke="#000" points="341.38 -52 310.74 -34 341.38 -16 372.02 -34 341.38 -52"/><text x="341.38" y="-28.95" font-family="Times,serif" font-size="14" text-anchor="middle">B2</text></g><g id="edge11" class="edge"><title>A2-&gt;B2</title><path fill="none" stroke="#000" d="M256.54,-108.23C272.48,-94.12 300.68,-69.16 319.93,-52.11"/><polygon fill="#000" stroke="#000" points="322.02 -54.93 327.19 -45.68 317.38 -49.69 322.02 -54.93"/></g><g id="node4" class="node"><title>A4</title><polygon fill="none" stroke="#000" points="538.12 -137 506.75 -119 538.12 -101 569.48 -119 538.12 -137"/><text x="538.12" y="-113.95" font-family="Times,serif" font-size="14" text-anchor="middle">A4</text></g><g id="edge13" class="edge"><title>A3-&gt;A4</title><path fill="none" stroke="#000" d="M461.38,-124.68C473.97,-125.79 490.25,-126.04 504.48,-125.42"/><polygon fill="#000" stroke="#000" points="504.57 -128.92 514.33 -124.8 504.13 -121.94 504.57 -128.92"/></g><g id="node9" class="node"><title>B3</title><polygon fill="none" stroke="#000" points="636.85 -52 606.21 -34 636.85 -16 667.49 -34 636.85 -52"/><text x="636.85" y="-28.95" font-family="Times,serif" font-size="14" text-anchor="middle">B3</text></g><g id="edge14" class="edge"><title>A4-&gt;B3</title><path fill="none" stroke="#000" d="M551.37,-108.23C567.43,-94.12 595.84,-69.16 615.24,-52.11"/><polygon fill="#000" stroke="#000" points="617.36 -54.91 622.56 -45.68 612.74 -49.65 617.36 -54.91"/></g><g id="edge10" class="edge"><title>B1-&gt;A2</title><path fill="none" stroke="#000" d="M158.53,-44.77C174.47,-58.88 202.67,-83.84 221.93,-100.89"/><polygon fill="#000" stroke="#000" points="219.38 -103.31 229.18 -107.32 224.02 -98.07 219.38 -103.31"/></g><g id="edge12" class="edge"><title>B2-&gt;A3</title><path fill="none" stroke="#000" d="M354.54,-44.77C370.48,-58.88 398.68,-83.84 417.94,-100.89"/><polygon fill="#000" stroke="#000" points="415.39 -103.31 425.2 -107.32 420.03 -98.07 415.39 -103.31"/></g></g></svg>